<?xml version="1.0" encoding="iso-8859-1"?>
<!-- Generator: Adobe Illustrator 17.0.0, SVG Export Plug-In . SVG Version: 6.00 Build 0)  -->
<!DOCTYPE svg PUBLIC "-//W3C//DTD SVG 1.1//EN" "http://www.w3.org/Graphics/SVG/1.1/DTD/svg11.dtd">
<svg version="1.1" id="Layer" xmlns="http://www.w3.org/2000/svg" xmlns:xlink="http://www.w3.org/1999/xlink" x="0px" y="0px"
	 width="800px" height="518px" viewBox="0 0 800 518" style="enable-background:new 0 0 800 518;" xml:space="preserve">
<path style="fill-rule:evenodd;clip-rule:evenodd;fill:#25A14B;" d="M621.56,332c0-0.07-0.02-0.13-0.02-0.2l7.17-3.59
	c0.61,0.52,1.39,0.85,2.26,0.85c1.95,0,3.53-1.58,3.53-3.53s-1.58-3.53-3.53-3.53c-1.95,0-3.53,1.58-3.53,3.53
	c0,0.07,0.02,0.13,0.02,0.2l-7.17,3.58c-0.61-0.52-1.39-0.84-2.26-0.84c-1.95,0-3.53,1.58-3.53,3.53s1.58,3.53,3.53,3.53
	c0.87,0,1.65-0.33,2.26-0.84l7.17,3.58c0,0.07-0.02,0.13-0.02,0.2c0,1.95,1.58,3.53,3.53,3.53c1.95,0,3.53-1.58,3.53-3.53
	s-1.58-3.53-3.53-3.53c-0.87,0-1.65,0.32-2.26,0.84l-7.17-3.58C621.54,332.13,621.56,332.07,621.56,332z M625.5,348
	c-8.84,0-16-7.16-16-16s7.16-16,16-16s16,7.16,16,16S634.34,348,625.5,348z"/>
<path style="fill-rule:evenodd;clip-rule:evenodd;fill:#EB7323;" d="M567.5,322v3.52c0,0,12.98,0.92,13.78,14.4h3.34
	C584.62,339.92,585.5,323.09,567.5,322z M567.5,331.54c0,0,7.57,0.34,7.96,8.46h3.35c0,0,0.16-11.47-11.31-11.97V331.54z M570,340
	c1.38,0,2.5-1.12,2.5-2.5s-1.12-2.5-2.5-2.5s-2.5,1.12-2.5,2.5S568.62,340,570,340z M575.5,348c-8.84,0-16-7.16-16-16s7.16-16,16-16
	s16,7.16,16,16S584.34,348,575.5,348z"/>
<path style="fill-rule:evenodd;clip-rule:evenodd;fill:#1D8FDD;" d="M534.5,327.32l-4.89,3.83l2.73,4.34l-3.52-3.72l-3.3,2.58
	l-0.02-0.01l-0.02,0.01l-3.3-2.58l-3.52,3.72l2.73-4.34l-4.89-3.83V338h9h9V327.32z M533.42,326h-7.92h-7.92
	c-0.33,0-0.61,0.15-0.81,0.39l8.71,6.83l0.02-0.02l0.02,0.02l8.71-6.83C534.03,326.15,533.75,326,533.42,326z M525.5,348
	c-8.84,0-16-7.16-16-16s7.16-16,16-16s16,7.16,16,16S534.34,348,525.5,348z"/>
<path style="fill-rule:evenodd;clip-rule:evenodd;fill:#EFCB07;" d="M481.03,328.58c-1.07,1.06-2.81,1.29-3.55,1.1
	c-0.84-0.22-0.71-0.91-0.65-1.17c-0.04-0.04-3.09-1.27-3.1-1.27c-2.83,1.87-2.49,6.74-2.49,6.9c-1.34,2.45-2.1,3.17-4.74,3.77
	l1.4,3.07c3.28-1.02,5.06-2.57,6.46-4.38c2.59,0.75,3.72,2.11,4.99,4.4c0,0,2.63-2,2.63-2.16c-1.21-2.51-3.02-3.89-5.15-5.01l0.05-1
	c3.16,0.75,5.62-1.76,5.62-1.76S481.32,329.02,481.03,328.58z M477.23,321c-1.59,0-2.88,1.29-2.88,2.87c0,1.59,1.29,2.87,2.88,2.87
	s2.88-1.28,2.88-2.87C480.11,322.29,478.82,321,477.23,321z M475.5,348c-8.84,0-16-7.16-16-16s7.16-16,16-16s16,7.16,16,16
	S484.34,348,475.5,348z"/>
<path style="fill-rule:evenodd;clip-rule:evenodd;fill:#D35911;" d="M432.21,336.35c-0.21,1.11-0.4,1.79-1.04,2.28
	c-1.48,1.09-4.71,0.91-6.5,0.91c-1.78,0-2.05-0.88-2.05-1.71v-4.76c0-0.67,0.22-0.9,0.65-0.9h3.98c1.96,0,2.2,1.09,2.36,1.73
	c0.17,0.65,1.01,0.51,1.01-0.09s-0.18-1.41-0.18-2.23c0-0.83,0.13-1.44,0.18-2.01c0.05-0.57-0.24-0.81-0.56-0.81
	s-0.5,0.02-0.53,0.63c-0.11,1.15-0.99,1.59-1.85,1.59h-4.47c-0.41,0-0.56-0.15-0.56-0.62c0-0.48-0.03-3.56-0.03-4.49
	c0-0.94,0.08-1.27,3.2-1.27c6.13,0,5.5,1.16,5.53,1.96c0.01,0.42,0.16,0.5,0.4,0.5c0.25,0,0.69-0.17,0.69-0.66
	c0-0.49-0.14-1.08-0.14-1.64c0-0.57,0.23-1,0.23-1.2s-0.1-0.55-0.58-0.56c-0.87,0-2.08,0.38-7.13,0.38c-2.43,0-6.05-0.11-6.4-0.11
	c-0.36,0-0.46,0.21-0.45,0.46c0.01,0.27-0.02,0.51,0.56,0.56c1.51,0.14,1.77,1.29,1.77,2.44v11.04c0,2.13-1.78,2.11-2.2,2.11
	c-0.42,0-0.6,0.21-0.6,0.5c0,0.28,0.1,0.42,0.6,0.42c1.34,0,9.34-0.05,11.65-0.05c2.32,0,2.1,0.25,2.63,0.25
	c0.62,0,0.47-0.85,0.47-1.48c0-0.76,0.56-1.94,0.6-2.49C433.5,335.85,432.32,335.84,432.21,336.35z M425.5,348
	c-8.84,0-16-7.16-16-16s7.16-16,16-16s16,7.16,16,16S434.34,348,425.5,348z"/>
<path style="fill-rule:evenodd;clip-rule:evenodd;fill:#036367;" d="M384.42,322.2c-0.08-0.13-0.22-0.2-0.4-0.2h-3.08
	c-0.45,0-0.65,0.3-0.81,0.6l-6.77,12.52l4.32,8.28c0.15,0.28,0.38,0.6,0.85,0.6h3.04c0.18,0,0.32-0.07,0.4-0.2
	c0.08-0.14,0.08-0.32,0-0.49l-4.29-8.18v-0.02l6.73-12.42C384.5,322.52,384.5,322.34,384.42,322.2z M372.05,326.94
	c-0.15-0.28-0.38-0.6-0.85-0.6h-3.04c-0.19,0-0.34,0.07-0.42,0.2c-0.08,0.14-0.06,0.31,0.02,0.49l2.06,3.71v0.02l-3.24,5.95
	c-0.08,0.18-0.08,0.35,0,0.49c0.08,0.13,0.22,0.21,0.4,0.21h3.04c0.46,0,0.68-0.32,0.83-0.61l3.29-6.06L372.05,326.94z M375.5,348
	c-8.84,0-16-7.16-16-16s7.16-16,16-16s16,7.16,16,16S384.34,348,375.5,348z"/>
<path style="fill-rule:evenodd;clip-rule:evenodd;fill:#FF5300;" d="M334.55,330.64c-0.41,0-0.79,0.1-1.14,0.28
	c-0.24-3.32-2.47-5.92-5.19-5.92c-0.67,0-1.32,0.16-1.89,0.44c-0.22,0.11-0.28,0.22-0.28,0.43v11.69c0,0.22,0.14,0.41,0.32,0.43
	l8.18,0.01c1.63,0,2.95-1.65,2.95-3.68C337.5,332.28,336.18,330.64,334.55,330.64z M325.77,326.27c0-0.23-0.15-0.41-0.33-0.41
	c-0.17,0-0.32,0.18-0.32,0.41l-0.14,8.29l0.14,3.01c0,0.22,0.15,0.4,0.32,0.4c0.18,0,0.33-0.18,0.33-0.4l0.14-3.01L325.77,326.27z
	 M324.74,326.96c0-0.21-0.14-0.38-0.3-0.38c-0.17,0-0.31,0.17-0.31,0.38l-0.11,7.6l0.11,3.05c0,0.21,0.14,0.38,0.31,0.38
	c0.16,0,0.3-0.17,0.3-0.38l0.13-3.05L324.74,326.96z M323.71,328.17c-0.01-0.2-0.13-0.35-0.29-0.35c-0.15,0-0.28,0.15-0.28,0.35
	l-0.13,6.39l0.13,3.08c0,0.19,0.13,0.35,0.28,0.35c0.16,0,0.28-0.16,0.29-0.36l0.14-3.07L323.71,328.17z M322.68,327.93
	c0-0.19-0.12-0.33-0.26-0.33c-0.15,0-0.26,0.14-0.27,0.33l-0.13,6.63l0.13,3.09c0.01,0.19,0.12,0.33,0.27,0.33
	c0.14,0,0.26-0.14,0.26-0.33l0.16-3.09L322.68,327.93z M321.66,327.75c0-0.17-0.11-0.3-0.24-0.3c-0.13,0-0.24,0.13-0.24,0.3
	l-0.15,6.81l0.15,3.12c0,0.17,0.11,0.3,0.24,0.3c0.13,0,0.24-0.13,0.24-0.3l0.17-3.12L321.66,327.75z M320.65,327.97
	c0-0.15-0.1-0.27-0.22-0.27s-0.22,0.12-0.22,0.27l-0.16,6.59l0.16,3.14c0,0.16,0.1,0.28,0.22,0.28s0.22-0.12,0.22-0.28l0.19-3.14
	L320.65,327.97z M319.65,328.48c0-0.14-0.09-0.25-0.2-0.25c-0.11,0-0.2,0.11-0.2,0.25l-0.18,6.08l0.18,3.17
	c0,0.14,0.09,0.25,0.2,0.25c0.11,0,0.2-0.11,0.2-0.25l0.2-3.17L319.65,328.48z M318.66,329.61c-0.01-0.12-0.09-0.22-0.18-0.22
	c-0.1,0-0.18,0.1-0.18,0.22l-0.19,4.95l0.19,3.19c0,0.13,0.08,0.23,0.18,0.23c0.09,0,0.17-0.1,0.18-0.23l0.21-3.19L318.66,329.61z
	 M317.67,331.51c0-0.11-0.07-0.19-0.16-0.19s-0.16,0.08-0.16,0.2l-0.2,3.04l0.2,3.19c0.01,0.12,0.07,0.2,0.16,0.2
	s0.16-0.08,0.16-0.2l0.23-3.19L317.67,331.51z M316.69,331.28c0-0.1-0.06-0.17-0.14-0.17c-0.07,0-0.13,0.07-0.14,0.17l-0.21,3.28
	l0.21,3.17c0.01,0.09,0.07,0.17,0.14,0.17c0.08,0,0.14-0.08,0.14-0.17l0.24-3.17L316.69,331.28z M315.72,331.37
	c-0.01-0.09-0.06-0.15-0.12-0.15s-0.11,0.06-0.12,0.15l-0.22,3.19l0.22,3.07c0.01,0.08,0.06,0.15,0.12,0.15s0.11-0.07,0.12-0.15
	l0.26-3.07L315.72,331.37z M314.76,331.87c-0.01-0.07-0.05-0.12-0.1-0.12c-0.05,0-0.09,0.05-0.1,0.12l-0.24,2.68l0.24,2.63
	c0.01,0.07,0.05,0.12,0.1,0.12c0.05,0,0.09-0.04,0.1-0.12l0.27-2.63L314.76,331.87z M313.87,332.89c-0.01-0.07-0.05-0.12-0.1-0.12
	c-0.05,0-0.09,0.05-0.09,0.12l-0.18,1.66l0.18,1.64c0,0.07,0.04,0.12,0.09,0.12c0.05,0,0.09-0.05,0.1-0.12l0.21-1.64L313.87,332.89z
	 M325.5,348c-8.84,0-16-7.16-16-16s7.16-16,16-16s16,7.16,16,16S334.34,348,325.5,348z"/>
<path style="fill-rule:evenodd;clip-rule:evenodd;fill:#43C1FB;" d="M279.57,347.46c-0.06-0.13-0.1-0.27-0.1-0.41
	c0-0.53,0.02-2.29,0.02-4.48c0-1.52-0.51-2.52-1.09-3.02c3.57-0.41,7.31-1.79,7.31-8.07c0-1.78-0.62-3.24-1.65-4.38
	c0.17-0.41,0.71-2.07-0.16-4.32c0,0-1.34-0.44-4.39,1.67c-1.28-0.36-2.65-0.54-4.01-0.55c-1.36,0.01-2.73,0.19-4,0.55
	c-3.06-2.11-4.4-1.67-4.4-1.67c-0.87,2.25-0.33,3.91-0.16,4.32c-1.02,1.14-1.65,2.6-1.65,4.38c0,6.27,3.74,7.67,7.29,8.08
	c-0.46,0.41-0.87,1.13-1.02,2.18c-0.91,0.42-3.23,1.14-4.65-1.35c0,0-0.85-1.57-2.45-1.69c0,0-1.57-0.02-0.11,1
	c0,0,1.05,0.5,1.77,2.39c0,0,0.94,3.17,5.39,2.19l0.02,2.77c0,0.14-0.04,0.28-0.1,0.41c-6.86-1.81-11.93-8.03-11.93-15.46
	c0-8.84,7.16-16,16-16s16,7.16,16,16C291.5,339.43,286.43,345.65,279.57,347.46z"/>
<path style="fill-rule:evenodd;clip-rule:evenodd;fill:#FF4300;" d="M232.54,324.01c0.77,0,1.39,0.6,1.39,1.35s-0.62,1.35-1.39,1.35
	c-0.76,0-1.38-0.6-1.38-1.35S231.78,324.01,232.54,324.01z M216.4,332.56c-0.26-0.15-0.66-0.44-0.64-1.37c0-0.82,0.93-1.47,1.5-1.47
	c0.41-0.01,0.94,0.1,1.13,0.32C217.91,330.31,216.69,331.65,216.4,332.56z M228.93,332c-0.72,0-1.31,0.59-1.31,1.31
	c0,0.73,0.59,1.32,1.31,1.32c0.72,0,1.31-0.59,1.31-1.32C230.24,332.59,229.65,332,228.93,332z M222.39,336.51
	c-0.67-0.51-1.23,0.27-0.76,0.74c1.72,1.58,6.53,1.53,7.74,0.04c0.47-0.47-0.03-1.33-0.67-0.8
	C227.58,337.61,223.66,337.78,222.39,336.51z M222.1,332c-0.72,0-1.31,0.59-1.31,1.31c0,0.73,0.59,1.32,1.31,1.32
	c0.73,0,1.31-0.59,1.31-1.32C223.41,332.59,222.83,332,222.1,332z M225.56,339.9c-4.59,0-8.31-2.47-8.31-5.5
	c0-3.04,3.72-5.5,8.31-5.5s8.32,2.46,8.32,5.5C233.88,337.43,230.15,339.9,225.56,339.9z M234.66,332.56
	c-0.46-0.98-1.17-1.84-2.01-2.53c0.29-0.26,0.64-0.35,1.1-0.32c0.59,0.04,1.55,0.55,1.56,1.5
	C235.31,332.01,234.95,332.39,234.66,332.56z M235.67,329.49c-0.35-0.37-1.12-0.85-2.04-0.85c-0.97,0.06-1.25,0.23-1.94,0.77
	c-1.5-0.88-3.4-1.43-5.47-1.53c-0.02-0.58,0-3.44,2.31-3.11c0.62,0.01,1.29,0.34,1.61,0.53l-0.01,0.12c0,1.33,1.09,2.41,2.43,2.41
	c1.35,0,2.44-1.08,2.44-2.41c0-1.34-1.09-2.42-2.44-2.42c-0.93,0-1.74,0.53-2.14,1.3c-0.19-0.1-0.87-0.44-1.89-0.58
	c-3.31-0.39-3.42,3.34-3.41,4.13c-2.2,0.06-4.22,0.64-5.78,1.57c-0.04-0.03-0.79-0.76-1.95-0.76c-0.92,0.06-1.55,0.36-2.06,0.84
	c-0.51,0.57-0.83,1.19-0.75,2.16c0.21,1.29,1.33,1.89,1.51,1.98c-0.05,0.25-0.07,0.51-0.07,0.78c0,3.63,4.25,6.58,9.51,6.58
	c5.25,0,9.51-2.95,9.51-6.58c0-0.28-0.04-0.55-0.09-0.82l0.03,0.03c0.3-0.18,1.37-0.9,1.47-1.97
	C236.5,330.44,236.12,329.96,235.67,329.49z M225.5,348c-8.84,0-16-7.16-16-16s7.16-16,16-16s16,7.16,16,16S234.34,348,225.5,348z"
	/>
<path style="fill-rule:evenodd;clip-rule:evenodd;fill:#0BB9DF;" d="M186.11,326.71l-1.68-1.69c-0.14-0.13-0.31-0.2-0.5-0.2
	c-0.19,0-0.37,0.07-0.5,0.2l-8.05,8.05l-3.52-3.53c-0.13-0.13-0.31-0.2-0.5-0.2s-0.37,0.07-0.5,0.2l-1.68,1.68
	c-0.28,0.28-0.28,0.73,0,1.01l5.69,5.71c0.12,0.11,0.27,0.18,0.42,0.2h0.08h0.01c0.19,0,0.37-0.07,0.51-0.2l10.22-10.23
	C186.38,327.43,186.39,326.99,186.11,326.71z M177.29,321.98c-0.99-0.98-2.59-0.98-3.58,0l-8.23,8.23c-0.98,0.99-0.98,2.59,0,3.58
	l8.23,8.23c0.99,0.98,2.59,0.98,3.58,0l8.23-8.23c0.98-0.99,0.98-2.59,0-3.58l-0.04-0.04l-8.66,8.66c-0.38,0.37-0.87,0.58-1.4,0.58
	h-0.38l-0.08-0.06c-0.35-0.08-0.68-0.26-0.94-0.52l-5.7-5.71c-0.37-0.37-0.57-0.87-0.57-1.39c0-0.53,0.2-1.03,0.57-1.4l1.69-1.68
	c0.37-0.37,0.87-0.58,1.39-0.58c0.52,0,1.03,0.21,1.4,0.58l2.62,2.63l5.58-5.58L177.29,321.98z M175.5,348c-8.84,0-16-7.16-16-16
	s7.16-16,16-16s16,7.16,16,16S184.34,348,175.5,348z"/>
<path style="fill-rule:evenodd;clip-rule:evenodd;fill:#1D6FED;" d="M636.8,278.05c-0.34,0-0.69-0.04-1.03-0.1
	c-1.35-0.25-2.58-0.81-3.76-1.47c-0.71-0.4-1.53-0.84-2.24-1.25c-0.3-0.17-0.34-0.14-0.34,0.2v3.46v3.3c0,0.28-0.04,0.56-0.1,0.84
	c-0.7,2.85-4.24,4.49-6.84,3.11c-1.35-0.71-1.93-2.13-1.44-3.57c0.82-2.46,3.28-4.06,5.97-3.11c0.39,0.14,0.39,0.13,0.39-0.28v-4.34
	c0-0.45,0-0.46-0.44-0.55c-1.4-0.28-2.58-0.29-3.98,0c-4.63,0.96-7.49,5.05-6.91,9.73c0.33,2.71,1.68,4.82,3.99,6.28
	c2.11,1.34,4.44,1.7,6.89,1.28c2.27-0.39,4.17-1.46,5.6-3.28c1.42-1.8,2.03-3.85,1.83-6.13c-0.02-0.29,0.05-0.45,0.35-0.55
	c0.81-0.25,1.49-0.73,2.03-1.38c0.36-0.42,0.67-0.89,0.71-1.47C637.5,278.3,637.27,278.06,636.8,278.05z M625.5,298
	c-8.84,0-16-7.16-16-16s7.16-16,16-16s16,7.16,16,16S634.34,298,625.5,298z"/>
<path style="fill-rule:evenodd;clip-rule:evenodd;fill:#77B921;" d="M569.33,283.58c0,0,2.57-0.7,5.82-0.41
	c3.26,0.3,5.99,1.87,5.99,1.87c0.9,0.47,0.22,1.78-0.68,1.31c0,0-2.42-1.29-5.45-1.66c-3.03-0.38-5.16,0.33-5.16,0.33
	C568.95,285.27,568.44,283.84,569.33,283.58z M569.1,279.87c0,0,2.84-0.84,6.48-0.6c3.63,0.24,6.72,1.93,6.72,1.93
	c1.02,0.5,0.29,1.98-0.73,1.47c0,0-2.73-1.37-6.12-1.71c-3.38-0.34-5.74,0.5-5.74,0.5C568.71,281.77,568.1,280.18,569.1,279.87z
	 M583.2,279.26c0,0-3.2-1.73-7.26-2.17c-4.05-0.44-6.96,0.6-6.96,0.6c-1.21,0.38-1.84-1.62-0.62-2c0,0,3.48-1.04,7.85-0.72
	s7.97,2.44,7.97,2.44C585.37,278.05,584.39,279.89,583.2,279.26z M575.5,270c-6.63,0-12,5.37-12,12c0,2.9,1.03,5.56,2.75,7.64
	c0.86-0.82,3.75-3.07,8.84-2.35c4.76,0.68,6.85,3.22,7.56,4.35c2.94-2.19,4.85-5.69,4.85-9.64C587.5,275.37,582.13,270,575.5,270z
	 M575.5,294c1.07,0,2.11-0.14,3.09-0.4c-0.32-0.7-1.26-1.92-3.86-2.43c-2.99-0.59-4.5,0.78-4.98,1.36
	C571.45,293.47,573.41,294,575.5,294z M575.5,298c-8.84,0-16-7.16-16-16s7.16-16,16-16s16,7.16,16,16S584.34,298,575.5,298z"/>
<path style="fill-rule:evenodd;clip-rule:evenodd;fill:#630F6B;" d="M531.84,281.21l-0.01,4.97h2.73l0.94-4.97H531.84z
	 M532.74,278.4l-8.24-0.01l0.01,1.45h2.12l-3.26,3.71l-3.05-5.16h2.32l-0.01-1.39h-9.13v1.4l3.15-0.01l4.19,7.08v2.82l-2.77-0.01
	V289h4.34h4.81l0.01-0.71h-2.73v-2.83l4.89-5.63h3.35V278.4z M531.83,288.98h2.74v-2.09l-2.74,0.01V288.98z M525.5,298
	c-8.84,0-16-7.16-16-16s7.16-16,16-16s16,7.16,16,16S534.34,298,525.5,298z"/>
<path style="fill-rule:evenodd;clip-rule:evenodd;fill:#1D6199;" d="M471.51,279.63c-0.83,0-1.5-0.65-1.5-1.46
	c0-0.81,0.67-1.46,1.5-1.46c0.83,0,1.5,0.65,1.5,1.46C473.01,278.98,472.34,279.63,471.51,279.63z M482.29,279.63
	c-0.82,0-1.49-0.65-1.49-1.46c0-0.81,0.67-1.46,1.49-1.46c0.83,0,1.51,0.65,1.51,1.46C483.8,278.98,483.12,279.63,482.29,279.63z
	 M482.19,273c-2.67,0-4.88,1.91-5.25,4.41h-0.17c-0.38-2.5-2.59-4.41-5.26-4.41c-2.93,0-5.31,2.32-5.31,5.17
	c0,2.83,2.34,5.13,5.23,5.17h0.16v1.76l-6.09-1.6v6.87l6.09-1.78V291h8.95l-2.62-7.66h4.26h0.01c2.93,0,5.31-2.32,5.31-5.17
	C487.5,275.32,485.12,273,482.19,273z M475.5,298c-8.84,0-16-7.16-16-16s7.16-16,16-16s16,7.16,16,16S484.34,298,475.5,298z"/>
<path style="fill-rule:evenodd;clip-rule:evenodd;fill:#79C143;" d="M428.58,281.24c0.76,0,1.68,1.82,1.68,1.82l-2.79-0.39
	C427.47,282.67,427.82,281.24,428.58,281.24z M431.59,275.54c-1.21-1.03-3.3-1.03-3.3-1.03h-2.47c0,0-0.66-1.7-2.67-1.75
	c-1.42,0.03-1.8,0.16-1.8,1.26V277l-0.79,0.9c0,0-4.02,0-4.03,0.01c-1.13,1-1.08,2.43-1.08,2.43s0.07,7.17,3.81,7.74
	c0.01,0,4.15,0.81,4.56-1.43c0-0.45,0.03-2.33,0.03-2.33s1.56,2.28,2.98,2.17c0.15,0,2.95,0.13,2.95,2.1c0,1.98,0.02,1.82,0,2.01
	c-0.41,1.17-1.34,1.12-1.34,1.12c-0.94,0-0.95-0.02-2.19-0.02c-0.3-0.14-0.75-0.75-0.72-1.32c-0.08-1.27,1.69-0.98,1.69-0.98
	l-0.01-1.55c0,0-3.33-0.18-3.36,2.4c0.03,3.51,3.08,3.2,3.08,3.2l2.12,0.02c0,0,4.35-0.73,4.09-8.55
	C433.36,280.42,432.51,276.29,431.59,275.54z M420.49,272.76L416.3,277h3.33l0.86-0.78V272.76z M425.5,298c-8.84,0-16-7.16-16-16
	s7.16-16,16-16s16,7.16,16,16S434.34,298,425.5,298z"/>
<path style="fill-rule:evenodd;clip-rule:evenodd;fill:#0187F5;" d="M370.95,280.71h-2.98v-2.74h2.77c0.97,0,1.86,0.23,1.86,1.35
	C372.6,280.3,371.9,280.71,370.95,280.71z M371.1,285.87h-3.13v-3.21h3.18c1.16,0,1.87,0.47,1.87,1.67
	C373.02,285.54,372.17,285.87,371.1,285.87z M380.93,280.83c1.19,0,1.73,0.3,1.95,1.48h-3.98
	C378.93,281.65,379.38,280.83,380.93,280.83z M381,279.07c-2.7,0-4.57,1.93-4.57,4.47c0,2.63,1.76,4.46,4.57,4.46
	c2.02,0,3.59-1.05,4.28-3.05h-2.16c-0.15,0.53-1.05,1.3-2.03,1.3c-1.36,0-2.12-0.94-2.19-2.42h6.43
	C385.5,281.23,384.03,279.07,381,279.07z M383.66,276.79h-4.94v1.57h4.94V276.79z M373.55,281.41c1.07-0.49,1.67-1.29,1.67-2.44
	c0-2.18-1.58-2.97-3.93-2.97h-5.79v11.77h5.96c2.23,0,4.35-1.02,4.35-3.39C375.81,282.92,375.05,281.82,373.55,281.41z M375.5,298
	c-8.84,0-16-7.16-16-16s7.16-16,16-16s16,7.16,16,16S384.34,298,375.5,298z"/>
<path style="fill-rule:evenodd;clip-rule:evenodd;fill:#516557;" d="M319.08,280.78l1.78,3.64l-3.98,1.08
	C316.88,285.5,315.73,282.95,319.08,280.78z M321.68,277.57l-0.22,0.04l-1.25-2.54l-3.72,0.42l1.52,3.1
	c-7.84,3.23-4.37,10.86-4.37,10.86l11.96-3.44l-3.29-6.67c5.89-1.69,10.82,1.77,10.82,1.77l-4.06,1.1l-1.17-2.17
	c-1.1-0.21-2.35-0.27-3.68-0.05l2.76,5.62l11.93-3.44C338.91,282.17,334.59,275.37,321.68,277.57z M324.5,298c-8.84,0-16-7.16-16-16
	s7.16-16,16-16s16,7.16,16,16S333.34,298,324.5,298z"/>
<path style="fill-rule:evenodd;clip-rule:evenodd;fill:#23678F;" d="M275.94,281.59h-2.38l1.08-4.92h2.49
	c1.25,0,2.08,1.09,1.72,2.46C278.54,280.5,277.24,281.59,275.94,281.59z M279,273h-8.66l-3.84,18h5.08l1.25-5.96h3.63
	c3.48,0,6.38-2.19,7.16-5.91C284.5,274.91,281.54,273,279,273z M275.5,298c-8.84,0-16-7.16-16-16s7.16-16,16-16s16,7.16,16,16
	S284.34,298,275.5,298z"/>
<path style="fill-rule:evenodd;clip-rule:evenodd;fill:#21C9FB;" d="M226.04,289.25c-3.07,0.16-4.5-0.53-5.82-1.77
	c-1.47-1.39-0.88-2.98,0.32-3.06c1.19-0.08,1.91,1.37,2.55,1.77s3.07,1.32,4.35-0.16c1.4-1.61-0.93-2.44-2.63-2.69
	c-2.44-0.37-5.51-1.69-5.27-4.31c0.24-2.61,2.2-3.95,4.27-4.14c2.63-0.24,4.35,0.4,5.7,1.57c1.57,1.34,0.72,2.85-0.28,2.97
	c-0.99,0.12-2.11-2.21-4.3-2.25c-2.27-0.04-3.79,2.37-1,3.06c2.79,0.68,5.78,0.96,6.86,3.54
	C231.87,286.35,229.12,289.08,226.04,289.25z M234.8,282.1c0-5.35-4.32-9.68-9.66-9.68c-0.53,0-1.05,0.04-1.56,0.12
	c-0.9-0.59-1.98-0.94-3.15-0.94c-3.18,0-5.76,2.6-5.76,5.81c0,1.17,0.34,2.26,0.93,3.17c-0.08,0.5-0.12,1.01-0.12,1.52
	c0,5.36,4.32,9.69,9.66,9.69c0.6,0,1.19-0.05,1.76-0.16c0.88,0.56,1.93,0.88,3.05,0.88c3.18,0,5.76-2.6,5.76-5.82
	c0-1.21-0.36-2.34-1-3.27C234.77,282.99,234.8,282.55,234.8,282.1z M226.25,298c-8.84,0-16.75-6.97-16.75-15.87
	c0-8.91,7.16-16.13,16-16.13s16,7.22,16,16.13C241.5,291.03,235.09,298,226.25,298z"/>
<path style="fill:#EB4B1B;" d="M181.7,290.84c-2.85,0-5.17-2.3-5.19-5.15v-3.23l1.59,0.74l2.36-0.71v3.26
	c0,0.68,0.55,1.23,1.23,1.23c0.68,0,1.23-0.55,1.23-1.23v-3.32h3.98v3.22C186.9,288.52,184.57,290.84,181.7,290.84z M175.28,277.09
	c-0.68,0-1.23,0.55-1.23,1.22v7.41c-0.04,2.84-2.35,5.12-5.19,5.12c-2.87,0-5.19-2.32-5.19-5.19v-3.22h3.97v3.18
	c0,0.67,0.55,1.22,1.23,1.22c0.68,0,1.23-0.55,1.23-1.22v-7.5c0.1-2.78,2.38-5.01,5.18-5.01c2.82,0,5.1,2.24,5.18,5.04v1.64
	l-2.36,0.7l-1.59-0.74v-1.43C176.51,277.64,175.96,277.09,175.28,277.09z M175.5,266c-8.84,0-16,7.16-16,16s7.16,16,16,16
	s16-7.16,16-16S184.34,266,175.5,266z"/>
<path style="fill:#CB1F27;" d="M625.5,216c-8.84,0-16,7.16-16,16c0,6.55,3.94,12.18,9.58,14.65c-0.05-1.11-0.01-2.45,0.28-3.67
	l2.05-8.72c0,0-0.51-1.02-0.51-2.53c0-2.37,1.38-4.14,3.09-4.14c1.45,0,2.16,1.09,2.16,2.4c0,1.46-0.94,3.65-1.42,5.68
	c-0.4,1.7,0.86,3.08,2.53,3.08c3.03,0,5.07-3.89,5.07-8.51c0-3.5-2.36-6.13-6.65-6.13c-4.86,0-7.88,3.62-7.88,7.66
	c0,1.4,0.41,2.38,1.05,3.14c0.3,0.35,0.34,0.49,0.23,0.89l-0.32,1.29c-0.11,0.4-0.44,0.55-0.8,0.4c-2.24-0.91-3.28-3.36-3.28-6.11
	c0-4.55,3.83-10,11.43-10c6.11,0,10.13,4.42,10.13,9.17c0,6.27-3.49,10.96-8.63,10.96c-1.73,0-3.35-0.93-3.91-1.99
	c0,0-0.93,3.68-1.12,4.4c-0.34,1.23-1.01,2.46-1.61,3.42c1.44,0.43,2.96,0.66,4.53,0.66c8.84,0,16-7.16,16-16S634.34,216,625.5,216z
	"/>
<path style="fill-rule:evenodd;clip-rule:evenodd;" d="M568.64,234.09h-1.2v-3.74c0-0.26,0.23-0.25,0.23-0.25h1.2v3.74
	C568.87,234.1,568.64,234.09,568.64,234.09z M577.26,234.09h-1.2v-3.74c0-0.26,0.22-0.25,0.22-0.25h1.2v3.74
	C577.48,234.1,577.26,234.09,577.26,234.09z M583.29,234.09h-1.2v-3.74c0-0.26,0.23-0.25,0.23-0.25h1.2v3.74
	C583.52,234.1,583.29,234.09,583.29,234.09z M580.37,228.6c0,0-0.22-0.01-0.22,0.25v6.74h3.37v0.9h-3.15c0,0-0.22,0-0.22,0.26v1.24
	h5.12c0,0,0.23,0.01,0.23-0.25v-9.14H580.37z M574.34,228.6c0,0-0.23-0.01-0.23,0.25v6.74h3.37v0.9h-3.14c0,0-0.23,0-0.23,0.26v1.24
	h5.13c0,0,0.23,0.01,0.23-0.25v-9.14H574.34z M571.67,226.01c0,0-0.22-0.01-0.22,0.25v1.25h1.76c0,0,0.22,0,0.22-0.26v-1.24H571.67z
	 M569.09,226.01c0,0-0.22-0.01-0.22,0.25v2.34h-3.15c0,0-0.22-0.01-0.22,0.25v6.74h5.13c0,0,0.22,0.01,0.22-0.25v-9.33H569.09z
	 M571.45,235.59h1.76c0,0,0.22,0.01,0.22-0.25v-6.74h-1.75c0,0-0.23-0.01-0.23,0.25V235.59z M575.5,248c-8.84,0-16-7.16-16-16
	s7.16-16,16-16s16,7.16,16,16S584.34,248,575.5,248z"/>
<path style="fill-rule:evenodd;clip-rule:evenodd;fill:#EB7523;" d="M525.33,229.34h-3.5c-0.67,0-1.21-0.55-1.21-1.21
	c0-0.66,0.54-1.21,1.21-1.21h3.5c0.67,0,1.21,0.55,1.21,1.21C526.54,228.79,526,229.34,525.33,229.34z M528.94,236.56h-7.11
	c-0.67,0-1.21-0.55-1.21-1.2c0-0.67,0.54-1.2,1.21-1.2h7.11c0.67,0,1.21,0.53,1.21,1.2C530.15,236.01,529.61,236.56,528.94,236.56z
	 M535.3,230.06l-0.17-0.34l-0.28-0.22c-0.37-0.29-2.22,0.02-2.72-0.44c-0.36-0.33-0.41-0.91-0.52-1.71
	c-0.2-1.54-0.33-1.62-0.57-2.14c-0.87-1.86-3.25-3.26-4.88-3.45h-4.41c-3.48,0-6.32,2.84-6.32,6.32v7.37c0,3.47,2.84,6.31,6.32,6.31
	H529c3.48,0,6.3-2.84,6.32-6.31l0.04-5.11L535.3,230.06z M525.5,248c-8.84,0-16-7.16-16-16s7.16-16,16-16s16,7.16,16,16
	S534.34,248,525.5,248z"/>
<path style="fill-rule:evenodd;clip-rule:evenodd;fill:#237BA5;" d="M485.42,226.67c0.04,0.35,0.07,0.73,0.07,1.14
	c0,1.13-0.21,2.4-0.85,3.99l-3.4,9.83c3.31-1.93,5.54-5.51,5.54-9.62C486.78,230.07,486.28,228.25,485.42,226.67z M475.65,220.88
	c-3.89,0-7.31,1.99-9.3,5.01l0.71,0.02c1.17,0,2.97-0.15,2.97-0.15c0.6-0.03,0.67,0.85,0.07,0.92c0,0-0.6,0.07-1.28,0.11l4.06,12.06
	l2.44-7.31l-1.74-4.75c-0.6-0.04-1.17-0.11-1.17-0.11c-0.6-0.03-0.53-0.95,0.07-0.92c0,0,1.84,0.15,2.94,0.15
	c1.16,0,2.96-0.15,2.96-0.15c0.6-0.03,0.67,0.85,0.07,0.92c0,0-0.6,0.07-1.27,0.11l4.02,11.97l1.12-3.71
	c0.56-1.45,0.84-2.65,0.84-3.6c0-1.38-0.49-2.33-0.92-3.07c-0.56-0.92-1.09-1.7-1.09-2.62c0-1.02,0.78-1.97,1.87-1.97l0.14,0.01
	C481.18,221.98,478.55,220.88,475.65,220.88z M464.51,232.01c0,4.4,2.56,8.21,6.28,10.02l-5.31-14.55
	C464.86,228.86,464.51,230.39,464.51,232.01z M475.65,243.14c1.29,0,2.54-0.22,3.69-0.63c-0.03-0.05-0.05-0.1-0.08-0.15l-3.42-9.38
	l-3.34,9.71C473.5,242.98,474.55,243.14,475.65,243.14z M475.5,248c-8.84,0-16-7.16-16-16s7.16-16,16-16s16,7.16,16,16
	S484.34,248,475.5,248z"/>
<path style="fill-rule:evenodd;clip-rule:evenodd;fill:#3D5D7D;" d="M429.29,230.03v-4.19h-4.15v-3.97h-3.32
	c-0.12,0.97-0.23,1.72-0.34,2.23c-0.11,0.5-0.25,0.93-0.44,1.27c-0.19,0.33-0.45,0.61-0.78,0.82c-0.33,0.22-0.77,0.37-1.3,0.45v3.39
	h2.38v6.35c0,1.75,0.33,3.03,1.01,3.85c0.67,0.82,1.72,1,3.09,1.23c0.79,0.14,1.36,0.19,2.11,0.09c0.92-0.12,1.88-0.38,2.44-0.57
	l0.03-3.49c-0.36,0.33-0.73,0.58-1.11,0.76c-0.37,0.18-0.77,0.27-1.2,0.27c-0.47,0-0.86-0.08-1.16-0.23c-0.3-0.15-0.57-0.4-0.8-0.75
	c-0.24-0.34-0.4-0.83-0.49-1.44c-0.08-0.62-0.12-0.45-0.12-1.48v-4.59H429.29z M425.5,248c-8.84,0-16-7.16-16-16s7.16-16,16-16
	s16,7.16,16,16S434.34,248,425.5,248z"/>
<path style="fill-rule:evenodd;clip-rule:evenodd;fill:#A781B9;" d="M381.73,222.1v14.21h5.09c0.45-1.29,0.68-2.62,0.68-3.96
	C387.5,228.17,385.29,224.27,381.73,222.1z M380.32,221.08c-1.56-0.72-3.22-1.08-4.93-1.08c-1.43,0-2.83,0.28-4.18,0.78l9.11,8.31
	V221.08z M363.5,232.14c0,1.03,0.16,2.08,0.43,3.12l10.61-9.68l-4.53-4.13C366,223.52,363.5,227.6,363.5,232.14z M369.39,242.41
	v-10.34l-4.95,4.52C365.4,239,367.15,241.05,369.39,242.41z M370.47,242.99c1.21,0.55,2.49,0.89,3.8,1.01h2.19
	c4.13-0.39,7.82-2.95,9.66-6.74h-15.65V242.99z M375.5,248c-8.84,0-16-7.16-16-16s7.16-16,16-16s16,7.16,16,16S384.34,248,375.5,248
	z"/>
<path style="fill-rule:evenodd;clip-rule:evenodd;fill:#E33B7D;" d="M331.5,227c-2.76,0-5,2.24-5,5s2.24,5,5,5s5-2.24,5-5
	S334.26,227,331.5,227z M319.5,227c-2.76,0-5,2.24-5,5s2.24,5,5,5s5-2.24,5-5S322.26,227,319.5,227z M325.5,248
	c-8.84,0-16-7.16-16-16s7.16-16,16-16s16,7.16,16,16S334.34,248,325.5,248z"/>
<path style="fill-rule:evenodd;clip-rule:evenodd;fill:#057DE5;" d="M269.57,229.87l5.93-3.55l5.93,3.55l-5.93,3.54L269.57,229.87z
	 M285.5,226.72l-5.88-3.72l-4.12,3.32l-4.12-3.32l-5.88,3.72l4.07,3.15l-4.07,3.15l5.88,3.72l4.12-3.33l4.12,3.33l5.88-3.72
	l-4.07-3.15L285.5,226.72z M269.62,237.58l5.89,3.42l5.9-3.42v-1.25l-1.77,1.11l-4.13-3.31l-4.13,3.31l-1.76-1.11V237.58z
	 M275.5,248c-8.84,0-16-7.16-16-16s7.16-16,16-16s16,7.16,16,16S284.34,248,275.5,248z"/>
<path style="fill-rule:evenodd;clip-rule:evenodd;fill:#4B8347;" d="M225,220l-9.5,22h8.5v-4.67l-2.33-1.54l0.37-0.52l1.96,1.3
	v-3.68h2.08v2.35l1.92-0.98l0.32,0.58l-2.24,1.15v1.69l3.59-1.74l0.29,0.56l-3.88,1.88V242h8.42L225,220z M225.5,248
	c-8.84,0-16-7.16-16-16s7.16-16,16-16s16,7.16,16,16S234.34,248,225.5,248z"/>
<path style="fill-rule:evenodd;clip-rule:evenodd;fill:#DB477F;" d="M185.38,233.7c-0.47,2.72-2.03,5.06-4.22,6.57
	c-0.41-2.41-1.08-4.7-1.89-6.83C181.02,233.22,183.04,233.27,185.38,233.7z M177.3,233.83c0.9,2.3,1.63,4.8,2.02,7.44
	c-1.18,0.48-2.47,0.75-3.82,0.75c-2.29,0-4.39-0.77-6.08-2.06C171.11,237.41,173.47,234.89,177.3,233.83z M176.53,231.99
	c-4.18,1.23-6.79,3.98-8.57,6.6c-1.55-1.76-2.48-4.07-2.48-6.59v-0.32h0.06c3.57,0,7.12-0.24,10.3-1.17
	C176.07,230.99,176.31,231.48,176.53,231.99z M165.75,229.7c0.7-2.98,2.74-5.45,5.44-6.75c1.02,1.36,2.38,3.34,3.71,5.76
	C172.08,229.48,168.93,229.69,165.75,229.7z M176.8,228.07c-1.28-2.38-2.61-4.36-3.66-5.81c0.76-0.18,1.55-0.28,2.36-0.28
	c2.48,0,4.74,0.9,6.49,2.39C180.58,226.09,178.81,227.27,176.8,228.07z M178.5,231.55c-0.26-0.58-0.52-1.15-0.79-1.7
	c2.15-0.88,4.08-2.17,5.66-4.04c1.29,1.64,2.08,3.68,2.15,5.91C182.82,231.25,180.5,231.23,178.5,231.55z M175.5,220
	c-6.63,0-12,5.37-12,12s5.37,12,12,12s12-5.37,12-12S182.13,220,175.5,220z M175.5,248c-8.84,0-16-7.16-16-16s7.16-16,16-16
	s16,7.16,16,16S184.34,248,175.5,248z"/>
<path style="fill-rule:evenodd;clip-rule:evenodd;fill:#4B81A3;" d="M629.5,177h2v-2h-2V177z M625.5,177c-1.12,0-2.14,0.38-2.97,1
	h-5.03v-1c0-1.66,1.34-3,3-3h10c1.66,0,3,1.34,3,3v1h-5.03C627.64,177.38,626.62,177,625.5,177z M625.5,179c1.66,0,3,1.34,3,3
	s-1.34,3-3,3s-3-1.34-3-3S623.84,179,625.5,179z M630.5,190h-10c-1.66,0-3-1.34-3-3v-8h4.02c-0.63,0.84-1.02,1.87-1.02,3
	c0,2.76,2.24,5,5,5s5-2.24,5-5c0-1.13-0.39-2.16-1.02-3h4.02v8C633.5,188.66,632.16,190,630.5,190z M635.5,176c0-2.21-1.79-4-4-4
	h-12c-2.21,0-4,1.79-4,4v12c0,2.21,1.79,4,4,4h12c2.21,0,4-1.79,4-4V176z M625.5,198c-8.84,0-16-7.16-16-16s7.16-16,16-16
	s16,7.16,16,16S634.34,198,625.5,198z"/>
<path style="fill-rule:evenodd;clip-rule:evenodd;fill:#E32113;" d="M583.62,180.9l-11.17-7.34c-0.88-0.56-1.95-0.04-1.95,1.06v2.18
	h0.01v11.71h-0.01v0.89c0,1.1,1.07,1.6,1.95,1.04l11.16-7.52C584.48,182.37,584.5,181.46,583.62,180.9z M575.5,198
	c-8.84,0-16-7.16-16-16s7.16-16,16-16s16,7.16,16,16S584.34,198,575.5,198z"/>
<path style="fill-rule:evenodd;clip-rule:evenodd;fill:#619FAD;" d="M526.29,179.05c2.17-1.31,3.33,0.53,2.22,2.6
	c-1.11,2.07-2.12,3.43-2.65,3.43c-0.53,0-0.94-1.39-1.54-3.82c-0.63-2.5-0.63-7.02-3.23-6.5c-2.46,0.48-5.69,4.34-5.69,4.34
	l0.77,1.01c0,0,1.59-1.26,2.12-0.63c0.53,0.63,2.56,8.2,3.23,9.6c0.59,1.22,2.22,2.84,4,1.68c1.79-1.15,7.72-6.22,8.78-12.2
	C535.36,172.59,527.16,173.84,526.29,179.05z M525.5,198c-8.84,0-16-7.16-16-16s7.16-16,16-16s16,7.16,16,16S534.34,198,525.5,198z"
	/>
<path style="fill-rule:evenodd;clip-rule:evenodd;fill:#CF1900;" d="M483.86,180.87c-1.84-0.59-3.16-0.81-3.16-2.25
	c0-1.02,0.8-1.78,1.92-1.78c0.81,0,1.45,0.31,2.02,1.1l1.53-0.77c-0.78-1.35-1.9-2.03-3.46-2.03c-2.39,0-3.87,1.41-3.87,3.53
	c0,2.17,1.45,3.08,4.25,3.98c1.55,0.51,2.47,0.82,2.47,2.12c0,1.32-1.21,2.37-2.97,2.31c-1.79-0.06-2.34-1.02-2.99-2.46
	c-1.05-2.34-2.25-5.09-2.34-5.3c-1.22-2.76-3.63-4.32-6.61-4.32c-3.95,0-7.15,3.13-7.15,7s3.2,7,7.15,7c2.23,0,4.22-1,5.53-2.56
	l-0.92-2.08c-0.87,1.62-2.61,2.73-4.61,2.73c-2.87,0-5.19-2.28-5.19-5.09s2.32-5.08,5.19-5.08c2.12,0,4,1.21,4.75,3.02l2.29,5.09
	l0.26,0.57c0.93,2.11,2.26,3.31,4.76,3.32c2.71,0,4.79-1.72,4.79-4.1C487.5,182.57,486.35,181.66,483.86,180.87z M475.5,198
	c-8.84,0-16-7.16-16-16s7.16-16,16-16s16,7.16,16,16S484.34,198,475.5,198z"/>
<path style="fill-rule:evenodd;clip-rule:evenodd;fill:#373737;" d="M435.5,183v-5h-3v5h-14v-5h-3v5v3h3h14h3V183z M425.5,198
	c-8.84,0-16-7.16-16-16s7.16-16,16-16s16,7.16,16,16S434.34,198,425.5,198z"/>
<path style="fill-rule:evenodd;clip-rule:evenodd;fill:#005987;" d="M384.5,181.44c0-1.42-0.49-2.5-1.35-3.22
	c-1.03-0.86-2.04-1.28-3.51-1.28c-0.71,0-1.18,0.11-1.86,0.34c-0.69,0.24-1.43,0.72-2.28,1.31v-1.6h-3.27V189h3.26v-4.36
	c0-1.28,0.05-2.12,0.16-2.5c0.21-0.74,0.58-1.32,1.12-1.74c0.54-0.42,1.19-0.63,1.94-0.63c0.58,0,1.06,0.13,1.46,0.38
	c0.39,0.25,0.67,0.62,0.83,1.11c0.16,0.48,0.24,1.46,0.24,2.93V189h3.26V181.44z M369.77,176.99h-3.27V189h3.27V176.99z
	 M369.29,173.47c-0.32-0.31-0.71-0.47-1.16-0.47c-0.44,0-0.83,0.15-1.15,0.46c-0.31,0.31-0.47,0.68-0.47,1.11
	c0,0.45,0.16,0.83,0.48,1.15c0.32,0.31,0.71,0.47,1.16,0.47c0.45,0,0.83-0.15,1.14-0.46c0.32-0.31,0.48-0.69,0.48-1.13
	C369.77,174.16,369.61,173.78,369.29,173.47z M375.5,198c-8.84,0-16-7.16-16-16s7.16-16,16-16s16,7.16,16,16S384.34,198,375.5,198z"
	/>
<path style="fill-rule:evenodd;clip-rule:evenodd;fill:#D94935;" d="M317.35,189.54c1.43-0.5,3.28-0.57,3.59-0.57
	c0.34,0,0.51,0,0.79,0.03c2.6,1.92,3.72,2.87,3.72,4.68c0,1.98-1.42,3.48-4.09,3.77c-2.63-0.7-5-2.06-6.91-3.89
	c-0.01-0.12-0.05-0.24-0.05-0.37C314.4,190.67,316.59,189.82,317.35,189.54z M316.11,176.95c0-0.92,0.18-1.88,0.76-2.62
	c0.55-0.71,1.5-1.17,2.39-1.17c2.84,0,4.31,3.97,4.31,6.52c0,0.64-0.07,1.77-0.85,2.59c-0.55,0.57-1.47,0.99-2.33,0.99
	C317.45,183.26,316.11,179.33,316.11,176.95z M336.4,174.99h-3v-3h-2v3h-3v2h3v3h2v-3h3V174.99z M325.5,198.01
	c-0.57,0-1.14-0.03-1.69-0.09c2.57-1.26,3.94-3.44,3.94-5.62c0-2.45-1.37-3.65-2.88-4.96l-1.23-1c-0.37-0.31-0.89-0.74-0.89-1.52
	c0-0.78,0.52-1.28,0.96-1.74c1.44-1.17,2.87-2.41,2.87-5.03c0-2.69-1.64-4.11-2.43-4.78h2.13l2.18-1.28h-7.04
	c-1.85,0-4.17,0.28-6.13,1.95c-1.47,1.31-2.18,3.12-2.18,4.75c0,2.76,2.05,5.56,5.67,5.56c0.35,0,0.72-0.03,1.1-0.07
	c-0.17,0.43-0.34,0.78-0.34,1.39c0,1.09,0.54,1.77,1.02,2.41c-1.54,0.1-4.41,0.28-6.53,1.63c-0.73,0.44-1.27,0.97-1.67,1.51
	c-1.8-2.59-2.86-5.72-2.86-9.12c0-8.83,7.16-16,16-16s16,7.17,16,16C341.5,190.84,334.34,198.01,325.5,198.01z"/>
<path style="fill-rule:evenodd;clip-rule:evenodd;fill:#557DEF;" d="M276.54,185.1c2.01,1.43,2.89,2.14,2.89,3.49
	c0,1.65-1.35,2.86-3.9,2.86c-2.83,0-4.66-1.35-4.66-3.23s1.7-2.52,2.28-2.73c1.11-0.37,2.54-0.42,2.78-0.42
	C276.19,185.07,276.33,185.07,276.54,185.1z M275.51,180.8c-2.28,0-3.32-2.94-3.32-4.71c0-0.69,0.14-1.41,0.59-1.96
	c0.42-0.53,1.16-0.88,1.85-0.88c2.2,0,3.34,2.97,3.34,4.88c0,0.47-0.05,1.32-0.66,1.93C276.88,180.48,276.17,180.8,275.51,180.8z
	 M276.3,172.38c-1.43,0-3.23,0.21-4.74,1.45c-1.14,0.98-1.7,2.34-1.7,3.56c0,2.06,1.59,4.16,4.4,4.16c0.27,0,0.56-0.03,0.85-0.06
	c-0.13,0.32-0.27,0.58-0.27,1.04c0,0.82,0.43,1.32,0.8,1.8c-1.19,0.08-3.42,0.21-5.06,1.22c-1.57,0.92-2.04,2.27-2.04,3.23
	c0,1.96,1.85,3.79,5.69,3.79c4.56,0,6.97-2.52,6.97-5.01c0-1.83-1.06-2.73-2.22-3.71l-0.96-0.74c-0.29-0.24-0.69-0.56-0.69-1.14
	s0.4-0.95,0.75-1.3c1.11-0.87,2.22-1.8,2.22-3.76c0-2.02-1.27-3.08-1.88-3.58h1.64l1.7-0.95H276.3z M275.6,198.01
	c-8.83,0-15.99-7.16-15.99-16c0-8.83,7.16-16,15.99-16c8.84,0,16,7.17,16,16C291.6,190.85,284.44,198.01,275.6,198.01z"/>
<path style="fill-rule:evenodd;clip-rule:evenodd;fill:#4D9DDB;" d="M234.9,174.61c-0.71,0.46-1.5,0.8-2.35,0.98
	c-0.67-0.79-1.63-1.28-2.69-1.28c-2.04,0-3.69,1.81-3.69,4.04c0,0.32,0.03,0.63,0.09,0.92c-3.07-0.17-5.79-1.78-7.61-4.22
	c-0.32,0.6-0.5,1.29-0.5,2.03c0,1.4,0.65,2.64,1.64,3.36c-0.6-0.02-1.17-0.2-1.67-0.5v0.05c0,1.96,1.27,3.59,2.96,3.96
	c-0.31,0.09-0.64,0.14-0.97,0.14c-0.24,0-0.47-0.02-0.7-0.07c0.47,1.6,1.84,2.77,3.45,2.8c-1.26,1.09-2.85,1.73-4.58,1.73
	c-0.3,0-0.6-0.02-0.88-0.05c1.63,1.14,3.57,1.81,5.66,1.81c6.79,0,10.5-6.15,10.5-11.49l-0.01-0.52c0.73-0.57,1.35-1.28,1.85-2.1
	c-0.67,0.33-1.38,0.54-2.12,0.64C234.04,176.34,234.62,175.55,234.9,174.61z M225.5,198c-8.84,0-16-7.16-16-16s7.16-16,16-16
	s16,7.16,16,16S234.34,198,225.5,198z"/>
<path style="fill-rule:evenodd;clip-rule:evenodd;fill:#4363B1;" d="M179.5,176h2v-4h-3.87c-3.88,0-3.13,4-3.13,4v3h-2v4h2v9h4v-9h2
	l1-4h-3v-2C178.5,176.18,179.5,176,179.5,176z M175.5,198c-8.84,0-16-7.16-16-16s7.16-16,16-16s16,7.16,16,16S184.34,198,175.5,198z
	"/>
</svg>
